<mxfile host="app.diagrams.net" agent="Mozilla/5.0 (Macintosh; Intel Mac OS X 10_15_7) AppleWebKit/537.36 (KHTML, like Gecko) Chrome/126.0.0.0 Safari/537.36" version="24.7.6" pages="4">
  <diagram name="SPV音频使用场景" id="ul0JS4BwpoN7srtglS9s">
    <mxGraphModel dx="1306" dy="826" grid="1" gridSize="10" guides="1" tooltips="1" connect="1" arrows="1" fold="1" page="1" pageScale="1" pageWidth="3300" pageHeight="4681" math="0" shadow="0">
      <root>
        <mxCell id="0" />
        <mxCell id="1" parent="0" />
        <mxCell id="n7azlHTVNKfxHaia9Ka0-13" value="" style="rounded=0;whiteSpace=wrap;html=1;" parent="1" vertex="1">
          <mxGeometry x="301" y="195" width="460" height="115" as="geometry" />
        </mxCell>
        <mxCell id="n7azlHTVNKfxHaia9Ka0-22" style="edgeStyle=orthogonalEdgeStyle;rounded=0;orthogonalLoop=1;jettySize=auto;html=1;exitX=1;exitY=0.3333333333333333;exitDx=0;exitDy=0;exitPerimeter=0;fillColor=#f8cecc;strokeColor=#b85450;" parent="1" source="n7azlHTVNKfxHaia9Ka0-1" target="n7azlHTVNKfxHaia9Ka0-13" edge="1">
          <mxGeometry relative="1" as="geometry" />
        </mxCell>
        <mxCell id="n7azlHTVNKfxHaia9Ka0-1" value="producer" style="shape=umlActor;verticalLabelPosition=bottom;verticalAlign=top;html=1;outlineConnect=0;" parent="1" vertex="1">
          <mxGeometry x="160" y="232" width="30" height="60" as="geometry" />
        </mxCell>
        <mxCell id="n7azlHTVNKfxHaia9Ka0-7" style="edgeStyle=orthogonalEdgeStyle;rounded=0;orthogonalLoop=1;jettySize=auto;html=1;exitX=1;exitY=0.5;exitDx=0;exitDy=0;entryX=0;entryY=0.5;entryDx=0;entryDy=0;fillColor=#f8cecc;strokeColor=#b85450;dashed=1;" parent="1" source="n7azlHTVNKfxHaia9Ka0-2" target="n7azlHTVNKfxHaia9Ka0-5" edge="1">
          <mxGeometry relative="1" as="geometry" />
        </mxCell>
        <mxCell id="n7azlHTVNKfxHaia9Ka0-15" style="edgeStyle=orthogonalEdgeStyle;rounded=0;orthogonalLoop=1;jettySize=auto;html=1;exitX=0.5;exitY=1;exitDx=0;exitDy=0;entryX=0.25;entryY=0;entryDx=0;entryDy=0;fillColor=#f8cecc;strokeColor=#b85450;" parent="1" source="n7azlHTVNKfxHaia9Ka0-2" target="n7azlHTVNKfxHaia9Ka0-9" edge="1">
          <mxGeometry relative="1" as="geometry" />
        </mxCell>
        <mxCell id="n7azlHTVNKfxHaia9Ka0-2" value="post video" style="rounded=1;whiteSpace=wrap;html=1;dashed=1;" parent="1" vertex="1">
          <mxGeometry x="321" y="208" width="110" height="40" as="geometry" />
        </mxCell>
        <mxCell id="n7azlHTVNKfxHaia9Ka0-8" style="edgeStyle=orthogonalEdgeStyle;rounded=0;orthogonalLoop=1;jettySize=auto;html=1;exitX=1;exitY=0.5;exitDx=0;exitDy=0;entryX=0;entryY=0.5;entryDx=0;entryDy=0;dashed=1;fillColor=#f8cecc;strokeColor=#b85450;" parent="1" source="n7azlHTVNKfxHaia9Ka0-5" target="n7azlHTVNKfxHaia9Ka0-6" edge="1">
          <mxGeometry relative="1" as="geometry" />
        </mxCell>
        <mxCell id="n7azlHTVNKfxHaia9Ka0-5" value="local extract&amp;nbsp;audio" style="rounded=1;whiteSpace=wrap;html=1;dashed=1;" parent="1" vertex="1">
          <mxGeometry x="481" y="208" width="110" height="40" as="geometry" />
        </mxCell>
        <mxCell id="n7azlHTVNKfxHaia9Ka0-16" style="edgeStyle=orthogonalEdgeStyle;rounded=0;orthogonalLoop=1;jettySize=auto;html=1;exitX=0.5;exitY=1;exitDx=0;exitDy=0;entryX=0.75;entryY=0;entryDx=0;entryDy=0;fillColor=#f8cecc;strokeColor=#b85450;dashed=1;" parent="1" source="n7azlHTVNKfxHaia9Ka0-6" target="n7azlHTVNKfxHaia9Ka0-9" edge="1">
          <mxGeometry relative="1" as="geometry">
            <Array as="points">
              <mxPoint x="696" y="330" />
              <mxPoint x="476" y="330" />
            </Array>
          </mxGeometry>
        </mxCell>
        <mxCell id="n7azlHTVNKfxHaia9Ka0-6" value="upload audio" style="rounded=1;whiteSpace=wrap;html=1;dashed=1;" parent="1" vertex="1">
          <mxGeometry x="641" y="208" width="110" height="40" as="geometry" />
        </mxCell>
        <mxCell id="n7azlHTVNKfxHaia9Ka0-23" style="edgeStyle=orthogonalEdgeStyle;rounded=0;orthogonalLoop=1;jettySize=auto;html=1;exitX=1;exitY=0.25;exitDx=0;exitDy=0;entryX=0;entryY=0.25;entryDx=0;entryDy=0;fillColor=#f8cecc;strokeColor=#b85450;" parent="1" source="n7azlHTVNKfxHaia9Ka0-9" target="n7azlHTVNKfxHaia9Ka0-17" edge="1">
          <mxGeometry relative="1" as="geometry" />
        </mxCell>
        <mxCell id="n7azlHTVNKfxHaia9Ka0-31" style="edgeStyle=orthogonalEdgeStyle;rounded=0;orthogonalLoop=1;jettySize=auto;html=1;exitX=0.5;exitY=1;exitDx=0;exitDy=0;entryX=0;entryY=0.5;entryDx=0;entryDy=0;fillColor=#d5e8d4;strokeColor=#82b366;" parent="1" source="n7azlHTVNKfxHaia9Ka0-9" target="n7azlHTVNKfxHaia9Ka0-30" edge="1">
          <mxGeometry relative="1" as="geometry" />
        </mxCell>
        <mxCell id="n7azlHTVNKfxHaia9Ka0-9" value="SPV BE" style="rounded=0;whiteSpace=wrap;html=1;" parent="1" vertex="1">
          <mxGeometry x="326" y="373" width="200" height="60" as="geometry" />
        </mxCell>
        <mxCell id="n7azlHTVNKfxHaia9Ka0-24" style="edgeStyle=orthogonalEdgeStyle;rounded=0;orthogonalLoop=1;jettySize=auto;html=1;exitX=0;exitY=0.75;exitDx=0;exitDy=0;entryX=1;entryY=0.75;entryDx=0;entryDy=0;fillColor=#f8cecc;strokeColor=#b85450;" parent="1" source="n7azlHTVNKfxHaia9Ka0-17" target="n7azlHTVNKfxHaia9Ka0-9" edge="1">
          <mxGeometry relative="1" as="geometry" />
        </mxCell>
        <mxCell id="n7azlHTVNKfxHaia9Ka0-17" value="MMS&amp;nbsp; extract audio" style="rounded=0;whiteSpace=wrap;html=1;" parent="1" vertex="1">
          <mxGeometry x="641" y="373" width="120" height="60" as="geometry" />
        </mxCell>
        <mxCell id="n7azlHTVNKfxHaia9Ka0-21" value="后台异步抽音频" style="text;html=1;align=center;verticalAlign=middle;whiteSpace=wrap;rounded=0;" parent="1" vertex="1">
          <mxGeometry x="530" y="393" width="130" height="20" as="geometry" />
        </mxCell>
        <mxCell id="n7azlHTVNKfxHaia9Ka0-28" style="edgeStyle=orthogonalEdgeStyle;rounded=0;orthogonalLoop=1;jettySize=auto;html=1;exitX=1;exitY=0.3333333333333333;exitDx=0;exitDy=0;exitPerimeter=0;entryX=0;entryY=0.5;entryDx=0;entryDy=0;fillColor=#d5e8d4;strokeColor=#82b366;" parent="1" source="n7azlHTVNKfxHaia9Ka0-27" target="n7azlHTVNKfxHaia9Ka0-9" edge="1">
          <mxGeometry relative="1" as="geometry" />
        </mxCell>
        <mxCell id="n7azlHTVNKfxHaia9Ka0-27" value="consumer" style="shape=umlActor;verticalLabelPosition=bottom;verticalAlign=top;html=1;outlineConnect=0;" parent="1" vertex="1">
          <mxGeometry x="160" y="383" width="30" height="60" as="geometry" />
        </mxCell>
        <mxCell id="n7azlHTVNKfxHaia9Ka0-30" value="MMS&amp;nbsp; Media info" style="rounded=0;whiteSpace=wrap;html=1;" parent="1" vertex="1">
          <mxGeometry x="641" y="450" width="120" height="60" as="geometry" />
        </mxCell>
        <mxCell id="n7azlHTVNKfxHaia9Ka0-32" value="获取音频的播放URL" style="text;html=1;align=center;verticalAlign=middle;whiteSpace=wrap;rounded=0;" parent="1" vertex="1">
          <mxGeometry x="446" y="453" width="170" height="30" as="geometry" />
        </mxCell>
        <mxCell id="n7azlHTVNKfxHaia9Ka0-33" value="获取背景音乐供后续发布使用" style="text;html=1;align=center;verticalAlign=middle;whiteSpace=wrap;rounded=0;" parent="1" vertex="1">
          <mxGeometry x="180" y="403" width="189" height="30" as="geometry" />
        </mxCell>
        <mxCell id="n7azlHTVNKfxHaia9Ka0-34" value="发布视频后抽背景音乐" style="text;html=1;align=center;verticalAlign=middle;whiteSpace=wrap;rounded=0;" parent="1" vertex="1">
          <mxGeometry x="390" y="290" width="170" as="geometry" />
        </mxCell>
        <mxCell id="n7azlHTVNKfxHaia9Ka0-35" value="发布视频" style="text;html=1;align=center;verticalAlign=middle;whiteSpace=wrap;rounded=0;" parent="1" vertex="1">
          <mxGeometry x="220" y="218" width="60" height="30" as="geometry" />
        </mxCell>
        <mxCell id="n7azlHTVNKfxHaia9Ka0-36" style="edgeStyle=orthogonalEdgeStyle;rounded=0;orthogonalLoop=1;jettySize=auto;html=1;exitX=1;exitY=0.25;exitDx=0;exitDy=0;fillColor=#f8cecc;strokeColor=#b85450;" parent="1" edge="1">
          <mxGeometry relative="1" as="geometry">
            <mxPoint x="790" y="205" as="sourcePoint" />
            <mxPoint x="840" y="205" as="targetPoint" />
          </mxGeometry>
        </mxCell>
        <mxCell id="n7azlHTVNKfxHaia9Ka0-37" value="生产流程" style="text;html=1;align=center;verticalAlign=middle;whiteSpace=wrap;rounded=0;" parent="1" vertex="1">
          <mxGeometry x="840" y="190" width="60" height="30" as="geometry" />
        </mxCell>
        <mxCell id="n7azlHTVNKfxHaia9Ka0-38" style="edgeStyle=orthogonalEdgeStyle;rounded=0;orthogonalLoop=1;jettySize=auto;html=1;exitX=1;exitY=0.25;exitDx=0;exitDy=0;fillColor=#d5e8d4;strokeColor=#82b366;" parent="1" edge="1">
          <mxGeometry relative="1" as="geometry">
            <mxPoint x="790" y="235" as="sourcePoint" />
            <mxPoint x="840" y="235" as="targetPoint" />
          </mxGeometry>
        </mxCell>
        <mxCell id="n7azlHTVNKfxHaia9Ka0-39" value="消费流程" style="text;html=1;align=center;verticalAlign=middle;whiteSpace=wrap;rounded=0;" parent="1" vertex="1">
          <mxGeometry x="840" y="220" width="60" height="30" as="geometry" />
        </mxCell>
      </root>
    </mxGraphModel>
  </diagram>
  <diagram id="UyRBObTsIENgyNjKBocj" name="改造方案">
    <mxGraphModel dx="1306" dy="826" grid="0" gridSize="10" guides="1" tooltips="1" connect="1" arrows="1" fold="1" page="1" pageScale="1" pageWidth="3300" pageHeight="4681" math="0" shadow="0">
      <root>
        <mxCell id="0" />
        <mxCell id="1" parent="0" />
        <mxCell id="xeU4SlMQeA0XM9hPJn7K-48" style="edgeStyle=orthogonalEdgeStyle;rounded=0;orthogonalLoop=1;jettySize=auto;html=1;fillColor=#f8cecc;strokeColor=#b85450;strokeWidth=2;" edge="1" parent="1" target="xeU4SlMQeA0XM9hPJn7K-38">
          <mxGeometry relative="1" as="geometry">
            <mxPoint x="487" y="895" as="sourcePoint" />
          </mxGeometry>
        </mxCell>
        <mxCell id="xeU4SlMQeA0XM9hPJn7K-44" value="" style="rounded=0;whiteSpace=wrap;html=1;dashed=1;fillColor=#f5f5f5;fontColor=#333333;strokeColor=#666666;" vertex="1" parent="1">
          <mxGeometry x="490" y="830" width="150" height="280" as="geometry" />
        </mxCell>
        <mxCell id="xeU4SlMQeA0XM9hPJn7K-2" style="edgeStyle=orthogonalEdgeStyle;rounded=0;orthogonalLoop=1;jettySize=auto;html=1;exitX=0.06;exitY=0.5;exitDx=0;exitDy=0;dashed=1;fillColor=#d5e8d4;strokeColor=#82b366;strokeWidth=2;exitPerimeter=0;" edge="1" parent="1" source="xeU4SlMQeA0XM9hPJn7K-40" target="xeU4SlMQeA0XM9hPJn7K-5">
          <mxGeometry relative="1" as="geometry">
            <mxPoint x="590" y="595" as="sourcePoint" />
          </mxGeometry>
        </mxCell>
        <mxCell id="xeU4SlMQeA0XM9hPJn7K-3" style="edgeStyle=orthogonalEdgeStyle;rounded=0;orthogonalLoop=1;jettySize=auto;html=1;exitX=1;exitY=0.75;exitDx=0;exitDy=0;fillColor=#d5e8d4;strokeColor=#82b366;strokeWidth=2;" edge="1" parent="1" source="xeU4SlMQeA0XM9hPJn7K-5" target="xeU4SlMQeA0XM9hPJn7K-21">
          <mxGeometry relative="1" as="geometry" />
        </mxCell>
        <mxCell id="xeU4SlMQeA0XM9hPJn7K-4" style="edgeStyle=orthogonalEdgeStyle;rounded=0;orthogonalLoop=1;jettySize=auto;html=1;exitX=0.5;exitY=1;exitDx=0;exitDy=0;fillColor=#d5e8d4;strokeColor=#82b366;strokeWidth=2;" edge="1" parent="1" source="xeU4SlMQeA0XM9hPJn7K-5" target="xeU4SlMQeA0XM9hPJn7K-38">
          <mxGeometry relative="1" as="geometry" />
        </mxCell>
        <mxCell id="xeU4SlMQeA0XM9hPJn7K-5" value="upload api" style="rounded=0;whiteSpace=wrap;html=1;fillColor=#d5e8d4;strokeColor=#82b366;" vertex="1" parent="1">
          <mxGeometry x="170" y="565" width="120" height="60" as="geometry" />
        </mxCell>
        <mxCell id="xeU4SlMQeA0XM9hPJn7K-7" style="edgeStyle=orthogonalEdgeStyle;rounded=0;orthogonalLoop=1;jettySize=auto;html=1;exitX=0.5;exitY=0;exitDx=0;exitDy=0;entryX=0.5;entryY=0;entryDx=0;entryDy=0;fillColor=#d5e8d4;strokeColor=#82b366;strokeWidth=2;entryPerimeter=0;" edge="1" parent="1" source="xeU4SlMQeA0XM9hPJn7K-9" target="xeU4SlMQeA0XM9hPJn7K-40">
          <mxGeometry relative="1" as="geometry">
            <mxPoint x="850" y="470" as="targetPoint" />
            <Array as="points">
              <mxPoint x="75" y="510" />
              <mxPoint x="740" y="510" />
            </Array>
          </mxGeometry>
        </mxCell>
        <mxCell id="xeU4SlMQeA0XM9hPJn7K-60" style="edgeStyle=orthogonalEdgeStyle;rounded=0;orthogonalLoop=1;jettySize=auto;html=1;exitX=0.971;exitY=0.353;exitDx=0;exitDy=0;entryX=0;entryY=0.25;entryDx=0;entryDy=0;exitPerimeter=0;fillColor=#d5e8d4;strokeColor=#82b366;strokeWidth=2;" edge="1" parent="1" source="xeU4SlMQeA0XM9hPJn7K-9" target="xeU4SlMQeA0XM9hPJn7K-5">
          <mxGeometry relative="1" as="geometry" />
        </mxCell>
        <mxCell id="xeU4SlMQeA0XM9hPJn7K-9" value="uploader" style="strokeColor=#d6b656;shadow=1;strokeWidth=1;rounded=1;absoluteArcSize=1;arcSize=2;labelPosition=center;verticalLabelPosition=middle;align=center;verticalAlign=bottom;spacingLeft=0;fontSize=12;whiteSpace=wrap;spacingBottom=2;html=1;fillColor=#fff2cc;" vertex="1" parent="1">
          <mxGeometry x="40" y="550" width="70" height="85" as="geometry" />
        </mxCell>
        <mxCell id="xeU4SlMQeA0XM9hPJn7K-10" value="" style="sketch=0;dashed=0;connectable=0;html=1;fillColor=#757575;strokeColor=none;shape=mxgraph.gcp2.phone;part=1;" vertex="1" parent="xeU4SlMQeA0XM9hPJn7K-9">
          <mxGeometry x="0.5" width="32" height="50" relative="1" as="geometry">
            <mxPoint x="-16" y="10" as="offset" />
          </mxGeometry>
        </mxCell>
        <mxCell id="xeU4SlMQeA0XM9hPJn7K-47" style="edgeStyle=orthogonalEdgeStyle;rounded=0;orthogonalLoop=1;jettySize=auto;html=1;exitX=0.5;exitY=1;exitDx=0;exitDy=0;entryX=0.5;entryY=0;entryDx=0;entryDy=0;fillColor=#f8cecc;strokeColor=#b85450;strokeWidth=2;" edge="1" parent="1" source="xeU4SlMQeA0XM9hPJn7K-21" target="xeU4SlMQeA0XM9hPJn7K-44">
          <mxGeometry relative="1" as="geometry">
            <mxPoint x="560" y="780" as="targetPoint" />
          </mxGeometry>
        </mxCell>
        <mxCell id="xeU4SlMQeA0XM9hPJn7K-21" value="vodprocess" style="rounded=0;whiteSpace=wrap;html=1;fillColor=#f8cecc;strokeColor=#b85450;" vertex="1" parent="1">
          <mxGeometry x="505" y="700" width="120" height="60" as="geometry" />
        </mxCell>
        <mxCell id="xeU4SlMQeA0XM9hPJn7K-22" value="&lt;b&gt;&lt;font style=&quot;font-size: 11px;&quot;&gt;File upload&lt;/font&gt;&lt;/b&gt;" style="text;html=1;strokeColor=none;fillColor=none;align=center;verticalAlign=middle;whiteSpace=wrap;rounded=0;" vertex="1" parent="1">
          <mxGeometry x="340" y="480" width="120" height="30" as="geometry" />
        </mxCell>
        <mxCell id="xeU4SlMQeA0XM9hPJn7K-23" value="&lt;b&gt;&lt;font style=&quot;font-size: 11px;&quot;&gt;preupload&lt;/font&gt;&lt;/b&gt;" style="text;html=1;strokeColor=none;fillColor=none;align=center;verticalAlign=middle;whiteSpace=wrap;rounded=0;" vertex="1" parent="1">
          <mxGeometry x="60" y="550" width="150" height="20" as="geometry" />
        </mxCell>
        <mxCell id="xeU4SlMQeA0XM9hPJn7K-24" value="&lt;b&gt;&lt;font style=&quot;font-size: 11px;&quot;&gt;reportupload&lt;/font&gt;&lt;/b&gt;" style="text;html=1;strokeColor=none;fillColor=none;align=center;verticalAlign=middle;whiteSpace=wrap;rounded=0;" vertex="1" parent="1">
          <mxGeometry x="70" y="605" width="150" height="30" as="geometry" />
        </mxCell>
        <mxCell id="xeU4SlMQeA0XM9hPJn7K-25" value="&lt;b&gt;&lt;font style=&quot;font-size: 11px;&quot;&gt;upload callback&lt;/font&gt;&lt;/b&gt;" style="text;html=1;strokeColor=none;fillColor=none;align=center;verticalAlign=middle;whiteSpace=wrap;rounded=0;" vertex="1" parent="1">
          <mxGeometry x="350" y="560" width="150" height="30" as="geometry" />
        </mxCell>
        <mxCell id="xeU4SlMQeA0XM9hPJn7K-26" value="&lt;b&gt;&lt;font style=&quot;font-size: 11px;&quot;&gt;submit task&lt;/font&gt;&lt;/b&gt;" style="text;html=1;strokeColor=none;fillColor=none;align=center;verticalAlign=middle;whiteSpace=wrap;rounded=0;" vertex="1" parent="1">
          <mxGeometry x="360" y="605" width="150" height="30" as="geometry" />
        </mxCell>
        <mxCell id="xeU4SlMQeA0XM9hPJn7K-41" style="edgeStyle=orthogonalEdgeStyle;rounded=0;orthogonalLoop=1;jettySize=auto;html=1;exitX=1;exitY=0.5;exitDx=0;exitDy=0;fillColor=#f8cecc;strokeColor=#b85450;strokeWidth=2;" edge="1" parent="1" source="xeU4SlMQeA0XM9hPJn7K-44" target="xeU4SlMQeA0XM9hPJn7K-40">
          <mxGeometry relative="1" as="geometry" />
        </mxCell>
        <mxCell id="xeU4SlMQeA0XM9hPJn7K-28" value="migrate service" style="rounded=1;whiteSpace=wrap;html=1;fillColor=#f8cecc;strokeColor=#b85450;" vertex="1" parent="1">
          <mxGeometry x="504" y="860" width="120" height="60" as="geometry" />
        </mxCell>
        <mxCell id="xeU4SlMQeA0XM9hPJn7K-31" value="async task" style="text;html=1;strokeColor=none;fillColor=none;align=center;verticalAlign=middle;whiteSpace=wrap;rounded=0;" vertex="1" parent="1">
          <mxGeometry x="534" y="833" width="60" height="30" as="geometry" />
        </mxCell>
        <mxCell id="xeU4SlMQeA0XM9hPJn7K-38" value="mediamanager" style="rounded=0;whiteSpace=wrap;html=1;fillColor=#dae8fc;strokeColor=#6c8ebf;" vertex="1" parent="1">
          <mxGeometry x="170" y="865" width="120" height="60" as="geometry" />
        </mxCell>
        <mxCell id="xeU4SlMQeA0XM9hPJn7K-39" value="&lt;b&gt;4.Store meta data&lt;/b&gt;" style="text;html=1;strokeColor=none;fillColor=none;align=center;verticalAlign=middle;whiteSpace=wrap;rounded=0;" vertex="1" parent="1">
          <mxGeometry x="150" y="820" width="150" height="30" as="geometry" />
        </mxCell>
        <mxCell id="xeU4SlMQeA0XM9hPJn7K-40" value="Object&amp;nbsp; Storage" style="outlineConnect=0;dashed=0;verticalLabelPosition=bottom;verticalAlign=top;align=center;html=1;shape=mxgraph.aws3.bucket_with_objects;fillColor=#d5e8d4;strokeColor=#82b366;" vertex="1" parent="1">
          <mxGeometry x="690" y="555" width="100" height="80" as="geometry" />
        </mxCell>
        <mxCell id="xeU4SlMQeA0XM9hPJn7K-42" value="extra auido" style="rounded=1;whiteSpace=wrap;html=1;fillColor=#f8cecc;strokeColor=#b85450;" vertex="1" parent="1">
          <mxGeometry x="504" y="950" width="120" height="60" as="geometry" />
        </mxCell>
        <mxCell id="xeU4SlMQeA0XM9hPJn7K-49" value="update or create new format" style="text;html=1;align=center;verticalAlign=middle;whiteSpace=wrap;rounded=0;" vertex="1" parent="1">
          <mxGeometry x="270" y="865" width="250" height="30" as="geometry" />
        </mxCell>
        <mxCell id="xeU4SlMQeA0XM9hPJn7K-51" style="edgeStyle=orthogonalEdgeStyle;rounded=0;orthogonalLoop=1;jettySize=auto;html=1;exitX=0.5;exitY=0;exitDx=0;exitDy=0;entryX=0.5;entryY=1;entryDx=0;entryDy=0;fillColor=#dae8fc;strokeColor=#6c8ebf;strokeWidth=2;" edge="1" parent="1" source="xeU4SlMQeA0XM9hPJn7K-50" target="xeU4SlMQeA0XM9hPJn7K-62">
          <mxGeometry relative="1" as="geometry" />
        </mxCell>
        <mxCell id="xeU4SlMQeA0XM9hPJn7K-50" value="video api" style="rounded=0;whiteSpace=wrap;html=1;fillColor=#dae8fc;strokeColor=#6c8ebf;" vertex="1" parent="1">
          <mxGeometry x="170" y="1050" width="120" height="60" as="geometry" />
        </mxCell>
        <mxCell id="xeU4SlMQeA0XM9hPJn7K-53" style="edgeStyle=orthogonalEdgeStyle;rounded=0;orthogonalLoop=1;jettySize=auto;html=1;exitX=1;exitY=0.5;exitDx=0;exitDy=0;fillColor=#f8cecc;strokeColor=#b85450;strokeWidth=2;" edge="1" parent="1" source="xeU4SlMQeA0XM9hPJn7K-52" target="xeU4SlMQeA0XM9hPJn7K-21">
          <mxGeometry relative="1" as="geometry" />
        </mxCell>
        <mxCell id="xeU4SlMQeA0XM9hPJn7K-52" value="common api" style="rounded=0;whiteSpace=wrap;html=1;fillColor=#f8cecc;strokeColor=#b85450;" vertex="1" parent="1">
          <mxGeometry x="260" y="700" width="120" height="60" as="geometry" />
        </mxCell>
        <mxCell id="xeU4SlMQeA0XM9hPJn7K-54" value="&lt;b&gt;&lt;font style=&quot;font-size: 11px;&quot;&gt;submit task&lt;/font&gt;&lt;/b&gt;" style="text;html=1;strokeColor=none;fillColor=none;align=center;verticalAlign=middle;whiteSpace=wrap;rounded=0;" vertex="1" parent="1">
          <mxGeometry x="360" y="700" width="150" height="30" as="geometry" />
        </mxCell>
        <mxCell id="xeU4SlMQeA0XM9hPJn7K-56" value="Biz BE" style="rounded=0;whiteSpace=wrap;html=1;fillColor=#fff2cc;strokeColor=#d6b656;" vertex="1" parent="1">
          <mxGeometry x="40" y="649" width="70" height="471" as="geometry" />
        </mxCell>
        <mxCell id="xeU4SlMQeA0XM9hPJn7K-57" value="" style="endArrow=classic;html=1;rounded=0;strokeWidth=2;fillColor=#dae8fc;strokeColor=#6c8ebf;exitX=1;exitY=0.915;exitDx=0;exitDy=0;exitPerimeter=0;entryX=0;entryY=0.5;entryDx=0;entryDy=0;" edge="1" parent="1" source="xeU4SlMQeA0XM9hPJn7K-56" target="xeU4SlMQeA0XM9hPJn7K-50">
          <mxGeometry width="50" height="50" relative="1" as="geometry">
            <mxPoint x="110" y="1030" as="sourcePoint" />
            <mxPoint x="170" y="1030" as="targetPoint" />
          </mxGeometry>
        </mxCell>
        <mxCell id="xeU4SlMQeA0XM9hPJn7K-58" value="" style="endArrow=classic;html=1;rounded=0;strokeWidth=2;fillColor=#f8cecc;strokeColor=#b85450;entryX=0;entryY=0.5;entryDx=0;entryDy=0;exitX=0.971;exitY=0.17;exitDx=0;exitDy=0;exitPerimeter=0;" edge="1" parent="1" source="xeU4SlMQeA0XM9hPJn7K-56" target="xeU4SlMQeA0XM9hPJn7K-52">
          <mxGeometry width="50" height="50" relative="1" as="geometry">
            <mxPoint x="140" y="730" as="sourcePoint" />
            <mxPoint x="170" y="740" as="targetPoint" />
          </mxGeometry>
        </mxCell>
        <mxCell id="xeU4SlMQeA0XM9hPJn7K-59" value="&lt;b&gt;&lt;font style=&quot;font-size: 11px;&quot;&gt;Extra auido&lt;/font&gt;&lt;/b&gt;" style="text;html=1;strokeColor=none;fillColor=none;align=center;verticalAlign=middle;whiteSpace=wrap;rounded=0;" vertex="1" parent="1">
          <mxGeometry x="90" y="700" width="150" height="30" as="geometry" />
        </mxCell>
        <mxCell id="xeU4SlMQeA0XM9hPJn7K-61" style="edgeStyle=orthogonalEdgeStyle;rounded=0;orthogonalLoop=1;jettySize=auto;html=1;exitX=0.971;exitY=0.353;exitDx=0;exitDy=0;entryX=0;entryY=0.25;entryDx=0;entryDy=0;exitPerimeter=0;fillColor=#d5e8d4;strokeColor=#82b366;strokeWidth=2;" edge="1" parent="1">
          <mxGeometry relative="1" as="geometry">
            <mxPoint x="110" y="610" as="sourcePoint" />
            <mxPoint x="172" y="610" as="targetPoint" />
          </mxGeometry>
        </mxCell>
        <mxCell id="xeU4SlMQeA0XM9hPJn7K-63" style="edgeStyle=orthogonalEdgeStyle;rounded=0;orthogonalLoop=1;jettySize=auto;html=1;exitX=0.5;exitY=0;exitDx=0;exitDy=0;entryX=0.5;entryY=1;entryDx=0;entryDy=0;fillColor=#dae8fc;strokeColor=#6c8ebf;strokeWidth=2;" edge="1" parent="1" source="xeU4SlMQeA0XM9hPJn7K-62" target="xeU4SlMQeA0XM9hPJn7K-38">
          <mxGeometry relative="1" as="geometry" />
        </mxCell>
        <mxCell id="xeU4SlMQeA0XM9hPJn7K-62" value="videodispatcher" style="rounded=0;whiteSpace=wrap;html=1;fillColor=#dae8fc;strokeColor=#6c8ebf;" vertex="1" parent="1">
          <mxGeometry x="170" y="960" width="120" height="60" as="geometry" />
        </mxCell>
        <mxCell id="xeU4SlMQeA0XM9hPJn7K-64" value="transcode" style="rounded=1;whiteSpace=wrap;html=1;fillColor=#f8cecc;strokeColor=#b85450;" vertex="1" parent="1">
          <mxGeometry x="504" y="1040" width="120" height="60" as="geometry" />
        </mxCell>
        <mxCell id="xeU4SlMQeA0XM9hPJn7K-65" value="&lt;b&gt;get url&lt;/b&gt;" style="text;html=1;align=center;verticalAlign=middle;whiteSpace=wrap;rounded=0;" vertex="1" parent="1">
          <mxGeometry x="105" y="1050" width="60" height="30" as="geometry" />
        </mxCell>
      </root>
    </mxGraphModel>
  </diagram>
  <diagram id="56fWUz_BjCPS4at8jg7M" name="上传时序图">
    <mxGraphModel dx="1306" dy="826" grid="0" gridSize="10" guides="1" tooltips="1" connect="1" arrows="1" fold="1" page="1" pageScale="1" pageWidth="3300" pageHeight="4681" math="0" shadow="0">
      <root>
        <mxCell id="0" />
        <mxCell id="1" parent="0" />
        <mxCell id="QnQSYmOxkfhuc6w5PpWx-44" value="get old mid by midv2" style="text;html=1;align=center;verticalAlign=middle;whiteSpace=wrap;rounded=0;" vertex="1" parent="1">
          <mxGeometry x="653" y="351" width="160" height="30" as="geometry" />
        </mxCell>
        <mxCell id="QnQSYmOxkfhuc6w5PpWx-1" value="upload api" style="shape=umlLifeline;perimeter=lifelinePerimeter;whiteSpace=wrap;html=1;container=1;dropTarget=0;collapsible=0;recursiveResize=0;outlineConnect=0;portConstraint=eastwest;newEdgeStyle={&quot;edgeStyle&quot;:&quot;elbowEdgeStyle&quot;,&quot;elbow&quot;:&quot;vertical&quot;,&quot;curved&quot;:0,&quot;rounded&quot;:0};" vertex="1" parent="1">
          <mxGeometry x="440" y="40" width="100" height="760" as="geometry" />
        </mxCell>
        <mxCell id="QnQSYmOxkfhuc6w5PpWx-27" value="" style="html=1;points=[[0,0,0,0,5],[0,1,0,0,-5],[1,0,0,0,5],[1,1,0,0,-5]];perimeter=orthogonalPerimeter;outlineConnect=0;targetShapes=umlLifeline;portConstraint=eastwest;newEdgeStyle={&quot;curved&quot;:0,&quot;rounded&quot;:0};" vertex="1" parent="QnQSYmOxkfhuc6w5PpWx-1">
          <mxGeometry x="45" y="74" width="10" height="156" as="geometry" />
        </mxCell>
        <mxCell id="QnQSYmOxkfhuc6w5PpWx-34" value="" style="html=1;points=[[0,0,0,0,5],[0,1,0,0,-5],[1,0,0,0,5],[1,1,0,0,-5]];perimeter=orthogonalPerimeter;outlineConnect=0;targetShapes=umlLifeline;portConstraint=eastwest;newEdgeStyle={&quot;curved&quot;:0,&quot;rounded&quot;:0};" vertex="1" parent="QnQSYmOxkfhuc6w5PpWx-1">
          <mxGeometry x="45" y="260" width="10" height="410" as="geometry" />
        </mxCell>
        <mxCell id="QnQSYmOxkfhuc6w5PpWx-2" value="mediamanager" style="shape=umlLifeline;perimeter=lifelinePerimeter;whiteSpace=wrap;html=1;container=1;dropTarget=0;collapsible=0;recursiveResize=0;outlineConnect=0;portConstraint=eastwest;newEdgeStyle={&quot;edgeStyle&quot;:&quot;elbowEdgeStyle&quot;,&quot;elbow&quot;:&quot;vertical&quot;,&quot;curved&quot;:0,&quot;rounded&quot;:0};" vertex="1" parent="1">
          <mxGeometry x="600" y="40" width="100" height="760" as="geometry" />
        </mxCell>
        <mxCell id="QnQSYmOxkfhuc6w5PpWx-22" value="" style="html=1;points=[[0,0,0,0,5],[0,1,0,0,-5],[1,0,0,0,5],[1,1,0,0,-5]];perimeter=orthogonalPerimeter;outlineConnect=0;targetShapes=umlLifeline;portConstraint=eastwest;newEdgeStyle={&quot;curved&quot;:0,&quot;rounded&quot;:0};" vertex="1" parent="QnQSYmOxkfhuc6w5PpWx-2">
          <mxGeometry x="45" y="96" width="10" height="120" as="geometry" />
        </mxCell>
        <mxCell id="QnQSYmOxkfhuc6w5PpWx-38" value="" style="html=1;points=[[0,0,0,0,5],[0,1,0,0,-5],[1,0,0,0,5],[1,1,0,0,-5]];perimeter=orthogonalPerimeter;outlineConnect=0;targetShapes=umlLifeline;portConstraint=eastwest;newEdgeStyle={&quot;curved&quot;:0,&quot;rounded&quot;:0};" vertex="1" parent="QnQSYmOxkfhuc6w5PpWx-2">
          <mxGeometry x="45" y="270" width="10" height="370" as="geometry" />
        </mxCell>
        <mxCell id="QnQSYmOxkfhuc6w5PpWx-3" value="codis" style="shape=umlLifeline;perimeter=lifelinePerimeter;whiteSpace=wrap;html=1;container=1;dropTarget=0;collapsible=0;recursiveResize=0;outlineConnect=0;portConstraint=eastwest;newEdgeStyle={&quot;edgeStyle&quot;:&quot;elbowEdgeStyle&quot;,&quot;elbow&quot;:&quot;vertical&quot;,&quot;curved&quot;:0,&quot;rounded&quot;:0};" vertex="1" parent="1">
          <mxGeometry x="760" y="40" width="100" height="760" as="geometry" />
        </mxCell>
        <mxCell id="QnQSYmOxkfhuc6w5PpWx-42" value="" style="html=1;points=[[0,0,0,0,5],[0,1,0,0,-5],[1,0,0,0,5],[1,1,0,0,-5]];perimeter=orthogonalPerimeter;outlineConnect=0;targetShapes=umlLifeline;portConstraint=eastwest;newEdgeStyle={&quot;curved&quot;:0,&quot;rounded&quot;:0};" vertex="1" parent="QnQSYmOxkfhuc6w5PpWx-3">
          <mxGeometry x="45" y="338" width="10" height="40" as="geometry" />
        </mxCell>
        <mxCell id="QnQSYmOxkfhuc6w5PpWx-49" value="" style="html=1;points=[[0,0,0,0,5],[0,1,0,0,-5],[1,0,0,0,5],[1,1,0,0,-5]];perimeter=orthogonalPerimeter;outlineConnect=0;targetShapes=umlLifeline;portConstraint=eastwest;newEdgeStyle={&quot;curved&quot;:0,&quot;rounded&quot;:0};" vertex="1" parent="QnQSYmOxkfhuc6w5PpWx-3">
          <mxGeometry x="45" y="406" width="10" height="40" as="geometry" />
        </mxCell>
        <mxCell id="QnQSYmOxkfhuc6w5PpWx-50" value="" style="endArrow=classic;html=1;rounded=0;" edge="1" parent="QnQSYmOxkfhuc6w5PpWx-3">
          <mxGeometry width="50" height="50" relative="1" as="geometry">
            <mxPoint x="-105" y="409" as="sourcePoint" />
            <mxPoint x="45" y="409" as="targetPoint" />
          </mxGeometry>
        </mxCell>
        <mxCell id="QnQSYmOxkfhuc6w5PpWx-51" value="get midv2 by old mid" style="text;html=1;align=center;verticalAlign=middle;whiteSpace=wrap;rounded=0;" vertex="1" parent="QnQSYmOxkfhuc6w5PpWx-3">
          <mxGeometry x="-107" y="379" width="160" height="30" as="geometry" />
        </mxCell>
        <mxCell id="QnQSYmOxkfhuc6w5PpWx-52" value="" style="endArrow=classic;html=1;rounded=0;" edge="1" parent="QnQSYmOxkfhuc6w5PpWx-3">
          <mxGeometry width="50" height="50" relative="1" as="geometry">
            <mxPoint x="40" y="439" as="sourcePoint" />
            <mxPoint x="-105" y="439" as="targetPoint" />
          </mxGeometry>
        </mxCell>
        <mxCell id="QnQSYmOxkfhuc6w5PpWx-53" value="return old mid" style="text;html=1;align=center;verticalAlign=middle;whiteSpace=wrap;rounded=0;" vertex="1" parent="QnQSYmOxkfhuc6w5PpWx-3">
          <mxGeometry x="-100" y="414" width="140" height="30" as="geometry" />
        </mxCell>
        <mxCell id="QnQSYmOxkfhuc6w5PpWx-4" value="mysql(old table)" style="shape=umlLifeline;perimeter=lifelinePerimeter;whiteSpace=wrap;html=1;container=1;dropTarget=0;collapsible=0;recursiveResize=0;outlineConnect=0;portConstraint=eastwest;newEdgeStyle={&quot;edgeStyle&quot;:&quot;elbowEdgeStyle&quot;,&quot;elbow&quot;:&quot;vertical&quot;,&quot;curved&quot;:0,&quot;rounded&quot;:0};" vertex="1" parent="1">
          <mxGeometry x="920" y="40" width="100" height="750" as="geometry" />
        </mxCell>
        <mxCell id="QnQSYmOxkfhuc6w5PpWx-63" value="" style="html=1;points=[[0,0,0,0,5],[0,1,0,0,-5],[1,0,0,0,5],[1,1,0,0,-5]];perimeter=orthogonalPerimeter;outlineConnect=0;targetShapes=umlLifeline;portConstraint=eastwest;newEdgeStyle={&quot;curved&quot;:0,&quot;rounded&quot;:0};" vertex="1" parent="QnQSYmOxkfhuc6w5PpWx-4">
          <mxGeometry x="45" y="490" width="10" height="40" as="geometry" />
        </mxCell>
        <mxCell id="QnQSYmOxkfhuc6w5PpWx-68" value="" style="endArrow=classic;html=1;rounded=0;" edge="1" parent="QnQSYmOxkfhuc6w5PpWx-4">
          <mxGeometry width="50" height="50" relative="1" as="geometry">
            <mxPoint x="-262" y="574" as="sourcePoint" />
            <mxPoint x="203" y="574" as="targetPoint" />
          </mxGeometry>
        </mxCell>
        <mxCell id="QnQSYmOxkfhuc6w5PpWx-69" value="create new media info &amp;amp;&amp;amp; media format info" style="text;html=1;align=center;verticalAlign=middle;whiteSpace=wrap;rounded=0;" vertex="1" parent="QnQSYmOxkfhuc6w5PpWx-4">
          <mxGeometry x="-249.5" y="550" width="275" height="30" as="geometry" />
        </mxCell>
        <mxCell id="QnQSYmOxkfhuc6w5PpWx-70" value="" style="endArrow=none;html=1;rounded=0;endFill=0;startArrow=classic;startFill=1;" edge="1" parent="QnQSYmOxkfhuc6w5PpWx-4" target="QnQSYmOxkfhuc6w5PpWx-67">
          <mxGeometry width="50" height="50" relative="1" as="geometry">
            <mxPoint x="-267" y="605" as="sourcePoint" />
            <mxPoint x="150" y="590" as="targetPoint" />
          </mxGeometry>
        </mxCell>
        <mxCell id="QnQSYmOxkfhuc6w5PpWx-71" value="return success" style="text;html=1;align=center;verticalAlign=middle;whiteSpace=wrap;rounded=0;" vertex="1" parent="QnQSYmOxkfhuc6w5PpWx-4">
          <mxGeometry x="-192" y="581" width="140" height="30" as="geometry" />
        </mxCell>
        <mxCell id="QnQSYmOxkfhuc6w5PpWx-8" value="preupload" style="text;html=1;align=center;verticalAlign=middle;whiteSpace=wrap;rounded=0;" vertex="1" parent="1">
          <mxGeometry x="370" y="90" width="60" height="30" as="geometry" />
        </mxCell>
        <mxCell id="QnQSYmOxkfhuc6w5PpWx-10" value="upload sdk" style="shape=umlLifeline;perimeter=lifelinePerimeter;whiteSpace=wrap;html=1;container=1;dropTarget=0;collapsible=0;recursiveResize=0;outlineConnect=0;portConstraint=eastwest;newEdgeStyle={&quot;edgeStyle&quot;:&quot;elbowEdgeStyle&quot;,&quot;elbow&quot;:&quot;vertical&quot;,&quot;curved&quot;:0,&quot;rounded&quot;:0};" vertex="1" parent="1">
          <mxGeometry x="280" y="40" width="100" height="770" as="geometry" />
        </mxCell>
        <mxCell id="QnQSYmOxkfhuc6w5PpWx-31" value="" style="html=1;points=[[0,0,0,0,5],[0,1,0,0,-5],[1,0,0,0,5],[1,1,0,0,-5]];perimeter=orthogonalPerimeter;outlineConnect=0;targetShapes=umlLifeline;portConstraint=eastwest;newEdgeStyle={&quot;curved&quot;:0,&quot;rounded&quot;:0};" vertex="1" parent="QnQSYmOxkfhuc6w5PpWx-10">
          <mxGeometry x="45" y="72" width="10" height="625" as="geometry" />
        </mxCell>
        <mxCell id="QnQSYmOxkfhuc6w5PpWx-12" value="" style="endArrow=classic;html=1;rounded=0;" edge="1" parent="1">
          <mxGeometry width="50" height="50" relative="1" as="geometry">
            <mxPoint x="334" y="120" as="sourcePoint" />
            <mxPoint x="484" y="120" as="targetPoint" />
          </mxGeometry>
        </mxCell>
        <mxCell id="QnQSYmOxkfhuc6w5PpWx-15" value="" style="endArrow=classic;html=1;rounded=0;entryX=0;entryY=0;entryDx=0;entryDy=5;entryPerimeter=0;" edge="1" parent="1">
          <mxGeometry width="50" height="50" relative="1" as="geometry">
            <mxPoint x="498" y="141" as="sourcePoint" />
            <mxPoint x="643" y="141" as="targetPoint" />
          </mxGeometry>
        </mxCell>
        <mxCell id="QnQSYmOxkfhuc6w5PpWx-16" value="" style="endArrow=classic;html=1;rounded=0;" edge="1" parent="1">
          <mxGeometry width="50" height="50" relative="1" as="geometry">
            <mxPoint x="657" y="534" as="sourcePoint" />
            <mxPoint x="966.5" y="534" as="targetPoint" />
          </mxGeometry>
        </mxCell>
        <mxCell id="QnQSYmOxkfhuc6w5PpWx-17" value="GenMid" style="text;html=1;align=center;verticalAlign=middle;whiteSpace=wrap;rounded=0;" vertex="1" parent="1">
          <mxGeometry x="540" y="110" width="60" height="30" as="geometry" />
        </mxCell>
        <mxCell id="QnQSYmOxkfhuc6w5PpWx-23" value="" style="endArrow=classic;html=1;rounded=0;" edge="1" parent="1">
          <mxGeometry width="50" height="50" relative="1" as="geometry">
            <mxPoint x="656" y="145" as="sourcePoint" />
            <mxPoint x="656" y="195" as="targetPoint" />
            <Array as="points">
              <mxPoint x="686" y="145" />
              <mxPoint x="686" y="195" />
            </Array>
          </mxGeometry>
        </mxCell>
        <mxCell id="QnQSYmOxkfhuc6w5PpWx-24" value="gen intMid &amp;amp;&amp;amp;&lt;br&gt;new mid" style="text;html=1;align=left;verticalAlign=middle;whiteSpace=wrap;rounded=0;" vertex="1" parent="1">
          <mxGeometry x="663" y="150" width="90" height="30" as="geometry" />
        </mxCell>
        <mxCell id="QnQSYmOxkfhuc6w5PpWx-25" value="" style="endArrow=classic;html=1;rounded=0;entryX=0;entryY=0;entryDx=0;entryDy=5;entryPerimeter=0;" edge="1" parent="1">
          <mxGeometry width="50" height="50" relative="1" as="geometry">
            <mxPoint x="655" y="210" as="sourcePoint" />
            <mxPoint x="810" y="210" as="targetPoint" />
          </mxGeometry>
        </mxCell>
        <mxCell id="QnQSYmOxkfhuc6w5PpWx-26" value="1.set &amp;lt;mid,midv2,n-hour&amp;gt;&lt;br&gt;2.set &amp;lt;&amp;nbsp;midv2,mid,n-hour&amp;gt;" style="text;html=1;align=left;verticalAlign=middle;whiteSpace=wrap;rounded=0;" vertex="1" parent="1">
          <mxGeometry x="663" y="210" width="150" height="30" as="geometry" />
        </mxCell>
        <mxCell id="QnQSYmOxkfhuc6w5PpWx-29" value="" style="endArrow=classic;html=1;rounded=0;" edge="1" parent="1">
          <mxGeometry width="50" height="50" relative="1" as="geometry">
            <mxPoint x="642" y="243" as="sourcePoint" />
            <mxPoint x="497" y="243" as="targetPoint" />
          </mxGeometry>
        </mxCell>
        <mxCell id="QnQSYmOxkfhuc6w5PpWx-30" value="return mid &amp;amp;&amp;amp; midv2" style="text;html=1;align=center;verticalAlign=middle;whiteSpace=wrap;rounded=0;" vertex="1" parent="1">
          <mxGeometry x="505" y="220" width="130" height="30" as="geometry" />
        </mxCell>
        <mxCell id="QnQSYmOxkfhuc6w5PpWx-32" value="" style="endArrow=classic;html=1;rounded=0;" edge="1" parent="1">
          <mxGeometry width="50" height="50" relative="1" as="geometry">
            <mxPoint x="485" y="260" as="sourcePoint" />
            <mxPoint x="340" y="260" as="targetPoint" />
          </mxGeometry>
        </mxCell>
        <mxCell id="QnQSYmOxkfhuc6w5PpWx-33" value="return mid &amp;amp;&amp;amp; midv2" style="text;html=1;align=center;verticalAlign=middle;whiteSpace=wrap;rounded=0;" vertex="1" parent="1">
          <mxGeometry x="350" y="230" width="130" height="30" as="geometry" />
        </mxCell>
        <mxCell id="QnQSYmOxkfhuc6w5PpWx-35" value="" style="endArrow=classic;html=1;rounded=0;" edge="1" parent="1">
          <mxGeometry width="50" height="50" relative="1" as="geometry">
            <mxPoint x="335" y="305" as="sourcePoint" />
            <mxPoint x="485" y="305" as="targetPoint" />
          </mxGeometry>
        </mxCell>
        <mxCell id="QnQSYmOxkfhuc6w5PpWx-36" value="reportupload(mid or midv2)" style="text;html=1;align=center;verticalAlign=middle;whiteSpace=wrap;rounded=0;" vertex="1" parent="1">
          <mxGeometry x="321" y="278" width="170" height="30" as="geometry" />
        </mxCell>
        <mxCell id="QnQSYmOxkfhuc6w5PpWx-39" value="mysql(v2 table)" style="shape=umlLifeline;perimeter=lifelinePerimeter;whiteSpace=wrap;html=1;container=1;dropTarget=0;collapsible=0;recursiveResize=0;outlineConnect=0;portConstraint=eastwest;newEdgeStyle={&quot;edgeStyle&quot;:&quot;elbowEdgeStyle&quot;,&quot;elbow&quot;:&quot;vertical&quot;,&quot;curved&quot;:0,&quot;rounded&quot;:0};" vertex="1" parent="1">
          <mxGeometry x="1080" y="40" width="100" height="750" as="geometry" />
        </mxCell>
        <mxCell id="QnQSYmOxkfhuc6w5PpWx-67" value="" style="html=1;points=[[0,0,0,0,5],[0,1,0,0,-5],[1,0,0,0,5],[1,1,0,0,-5]];perimeter=orthogonalPerimeter;outlineConnect=0;targetShapes=umlLifeline;portConstraint=eastwest;newEdgeStyle={&quot;curved&quot;:0,&quot;rounded&quot;:0};" vertex="1" parent="QnQSYmOxkfhuc6w5PpWx-39">
          <mxGeometry x="45" y="567" width="10" height="43" as="geometry" />
        </mxCell>
        <mxCell id="QnQSYmOxkfhuc6w5PpWx-40" value="" style="endArrow=classic;html=1;rounded=0;" edge="1" parent="1">
          <mxGeometry width="50" height="50" relative="1" as="geometry">
            <mxPoint x="495" y="320" as="sourcePoint" />
            <mxPoint x="645" y="320" as="targetPoint" />
          </mxGeometry>
        </mxCell>
        <mxCell id="QnQSYmOxkfhuc6w5PpWx-41" value="CreateMediaInfoAndFormat" style="text;html=1;align=center;verticalAlign=middle;whiteSpace=wrap;rounded=0;" vertex="1" parent="1">
          <mxGeometry x="540" y="291" width="60" height="30" as="geometry" />
        </mxCell>
        <mxCell id="QnQSYmOxkfhuc6w5PpWx-43" value="" style="endArrow=classic;html=1;rounded=0;" edge="1" parent="1">
          <mxGeometry width="50" height="50" relative="1" as="geometry">
            <mxPoint x="655" y="381" as="sourcePoint" />
            <mxPoint x="805" y="381" as="targetPoint" />
          </mxGeometry>
        </mxCell>
        <mxCell id="QnQSYmOxkfhuc6w5PpWx-46" value="" style="endArrow=classic;html=1;rounded=0;" edge="1" parent="1">
          <mxGeometry width="50" height="50" relative="1" as="geometry">
            <mxPoint x="800" y="411" as="sourcePoint" />
            <mxPoint x="655" y="411" as="targetPoint" />
          </mxGeometry>
        </mxCell>
        <mxCell id="QnQSYmOxkfhuc6w5PpWx-47" value="return midv2" style="text;html=1;align=center;verticalAlign=middle;whiteSpace=wrap;rounded=0;" vertex="1" parent="1">
          <mxGeometry x="660" y="386" width="140" height="30" as="geometry" />
        </mxCell>
        <mxCell id="QnQSYmOxkfhuc6w5PpWx-59" value="Options" style="shape=umlFrame;whiteSpace=wrap;html=1;pointerEvents=0;recursiveResize=0;container=1;collapsible=0;width=160;" vertex="1" parent="1">
          <mxGeometry x="570" y="330" width="271" height="160" as="geometry" />
        </mxCell>
        <mxCell id="QnQSYmOxkfhuc6w5PpWx-60" value="" style="endArrow=none;dashed=1;html=1;rounded=0;strokeWidth=2;entryX=1.004;entryY=0.575;entryDx=0;entryDy=0;entryPerimeter=0;" edge="1" parent="QnQSYmOxkfhuc6w5PpWx-59" target="QnQSYmOxkfhuc6w5PpWx-59">
          <mxGeometry width="50" height="50" relative="1" as="geometry">
            <mxPoint y="92" as="sourcePoint" />
            <mxPoint x="240" y="92" as="targetPoint" />
          </mxGeometry>
        </mxCell>
        <mxCell id="QnQSYmOxkfhuc6w5PpWx-61" value="[ mid v2 is not null]" style="text;html=1;align=center;verticalAlign=middle;whiteSpace=wrap;rounded=0;" vertex="1" parent="QnQSYmOxkfhuc6w5PpWx-59">
          <mxGeometry x="-10" y="90" width="120" height="30" as="geometry" />
        </mxCell>
        <mxCell id="QnQSYmOxkfhuc6w5PpWx-62" value="[ else ]" style="text;html=1;align=center;verticalAlign=middle;whiteSpace=wrap;rounded=0;" vertex="1" parent="QnQSYmOxkfhuc6w5PpWx-59">
          <mxGeometry x="-15" y="63" width="70" height="30" as="geometry" />
        </mxCell>
        <mxCell id="QnQSYmOxkfhuc6w5PpWx-64" value="create old media info &amp;amp;&amp;amp; media format info" style="text;html=1;align=center;verticalAlign=middle;whiteSpace=wrap;rounded=0;" vertex="1" parent="1">
          <mxGeometry x="705.5" y="510" width="275" height="30" as="geometry" />
        </mxCell>
        <mxCell id="QnQSYmOxkfhuc6w5PpWx-65" value="" style="endArrow=none;html=1;rounded=0;endFill=0;startArrow=classic;startFill=1;" edge="1" parent="1">
          <mxGeometry width="50" height="50" relative="1" as="geometry">
            <mxPoint x="655" y="565" as="sourcePoint" />
            <mxPoint x="964.5" y="565" as="targetPoint" />
          </mxGeometry>
        </mxCell>
        <mxCell id="QnQSYmOxkfhuc6w5PpWx-66" value="return success" style="text;html=1;align=center;verticalAlign=middle;whiteSpace=wrap;rounded=0;" vertex="1" parent="1">
          <mxGeometry x="730" y="541" width="140" height="30" as="geometry" />
        </mxCell>
        <mxCell id="QnQSYmOxkfhuc6w5PpWx-72" value="Options" style="shape=umlFrame;whiteSpace=wrap;html=1;pointerEvents=0;recursiveResize=0;container=1;collapsible=0;width=160;" vertex="1" parent="1">
          <mxGeometry x="570" y="500" width="580" height="160" as="geometry" />
        </mxCell>
        <mxCell id="QnQSYmOxkfhuc6w5PpWx-73" value="" style="endArrow=none;dashed=1;html=1;rounded=0;strokeWidth=2;entryX=1.004;entryY=0.575;entryDx=0;entryDy=0;entryPerimeter=0;" edge="1" parent="QnQSYmOxkfhuc6w5PpWx-72" target="QnQSYmOxkfhuc6w5PpWx-72">
          <mxGeometry width="50" height="50" relative="1" as="geometry">
            <mxPoint y="92" as="sourcePoint" />
            <mxPoint x="240" y="92" as="targetPoint" />
          </mxGeometry>
        </mxCell>
        <mxCell id="QnQSYmOxkfhuc6w5PpWx-74" value="[ mid v2 is not null]" style="text;html=1;align=center;verticalAlign=middle;whiteSpace=wrap;rounded=0;" vertex="1" parent="QnQSYmOxkfhuc6w5PpWx-72">
          <mxGeometry x="-10" y="90" width="120" height="30" as="geometry" />
        </mxCell>
        <mxCell id="QnQSYmOxkfhuc6w5PpWx-75" value="[ else ]" style="text;html=1;align=center;verticalAlign=middle;whiteSpace=wrap;rounded=0;" vertex="1" parent="QnQSYmOxkfhuc6w5PpWx-72">
          <mxGeometry x="-15" y="63" width="70" height="30" as="geometry" />
        </mxCell>
        <mxCell id="QnQSYmOxkfhuc6w5PpWx-76" value="" style="endArrow=classic;html=1;rounded=0;" edge="1" parent="1">
          <mxGeometry width="50" height="50" relative="1" as="geometry">
            <mxPoint x="643" y="676.5" as="sourcePoint" />
            <mxPoint x="497" y="676" as="targetPoint" />
          </mxGeometry>
        </mxCell>
        <mxCell id="QnQSYmOxkfhuc6w5PpWx-77" value="" style="endArrow=classic;html=1;rounded=0;" edge="1" parent="1">
          <mxGeometry width="50" height="50" relative="1" as="geometry">
            <mxPoint x="482" y="700.5" as="sourcePoint" />
            <mxPoint x="336" y="700" as="targetPoint" />
          </mxGeometry>
        </mxCell>
        <mxCell id="QnQSYmOxkfhuc6w5PpWx-78" value="return success" style="text;html=1;align=center;verticalAlign=middle;whiteSpace=wrap;rounded=0;" vertex="1" parent="1">
          <mxGeometry x="515" y="670" width="110" height="30" as="geometry" />
        </mxCell>
        <mxCell id="QnQSYmOxkfhuc6w5PpWx-79" value="return success" style="text;html=1;align=center;verticalAlign=middle;whiteSpace=wrap;rounded=0;" vertex="1" parent="1">
          <mxGeometry x="351" y="700" width="110" height="30" as="geometry" />
        </mxCell>
      </root>
    </mxGraphModel>
  </diagram>
  <diagram id="diAcyr-8nCftU79hjKJB" name="读写路由判断逻辑">
    <mxGraphModel dx="1136" dy="718" grid="0" gridSize="10" guides="1" tooltips="1" connect="1" arrows="1" fold="1" page="1" pageScale="1" pageWidth="3300" pageHeight="4681" math="0" shadow="0">
      <root>
        <mxCell id="0" />
        <mxCell id="1" parent="0" />
        <mxCell id="72XRdSwTwGZmG9cL9qSm-19" style="edgeStyle=orthogonalEdgeStyle;rounded=0;orthogonalLoop=1;jettySize=auto;html=1;exitX=0;exitY=0.5;exitDx=0;exitDy=0;entryX=0.5;entryY=0;entryDx=0;entryDy=0;" edge="1" parent="1" source="72XRdSwTwGZmG9cL9qSm-16" target="72XRdSwTwGZmG9cL9qSm-18">
          <mxGeometry relative="1" as="geometry" />
        </mxCell>
        <mxCell id="72XRdSwTwGZmG9cL9qSm-20" style="edgeStyle=orthogonalEdgeStyle;rounded=0;orthogonalLoop=1;jettySize=auto;html=1;exitX=1;exitY=0.5;exitDx=0;exitDy=0;entryX=0.5;entryY=0;entryDx=0;entryDy=0;" edge="1" parent="1" source="72XRdSwTwGZmG9cL9qSm-16" target="72XRdSwTwGZmG9cL9qSm-17">
          <mxGeometry relative="1" as="geometry" />
        </mxCell>
        <mxCell id="72XRdSwTwGZmG9cL9qSm-16" value="audio_id?" style="rhombus;whiteSpace=wrap;html=1;" vertex="1" parent="1">
          <mxGeometry x="650" y="180" width="80" height="80" as="geometry" />
        </mxCell>
        <mxCell id="72XRdSwTwGZmG9cL9qSm-33" style="edgeStyle=orthogonalEdgeStyle;rounded=0;orthogonalLoop=1;jettySize=auto;html=1;exitX=0.5;exitY=1;exitDx=0;exitDy=0;entryX=1;entryY=0.5;entryDx=0;entryDy=0;" edge="1" parent="1" source="72XRdSwTwGZmG9cL9qSm-17" target="72XRdSwTwGZmG9cL9qSm-30">
          <mxGeometry relative="1" as="geometry" />
        </mxCell>
        <mxCell id="72XRdSwTwGZmG9cL9qSm-36" style="edgeStyle=orthogonalEdgeStyle;rounded=0;orthogonalLoop=1;jettySize=auto;html=1;exitX=1;exitY=0.5;exitDx=0;exitDy=0;" edge="1" parent="1" source="72XRdSwTwGZmG9cL9qSm-17" target="72XRdSwTwGZmG9cL9qSm-35">
          <mxGeometry relative="1" as="geometry" />
        </mxCell>
        <mxCell id="72XRdSwTwGZmG9cL9qSm-17" value="new audio_id" style="rhombus;whiteSpace=wrap;html=1;" vertex="1" parent="1">
          <mxGeometry x="770" y="300" width="80" height="80" as="geometry" />
        </mxCell>
        <mxCell id="72XRdSwTwGZmG9cL9qSm-24" style="edgeStyle=orthogonalEdgeStyle;rounded=0;orthogonalLoop=1;jettySize=auto;html=1;exitX=1;exitY=0.5;exitDx=0;exitDy=0;entryX=0.5;entryY=0;entryDx=0;entryDy=0;" edge="1" parent="1" source="72XRdSwTwGZmG9cL9qSm-18" target="72XRdSwTwGZmG9cL9qSm-23">
          <mxGeometry relative="1" as="geometry" />
        </mxCell>
        <mxCell id="72XRdSwTwGZmG9cL9qSm-27" style="edgeStyle=orthogonalEdgeStyle;rounded=0;orthogonalLoop=1;jettySize=auto;html=1;exitX=0;exitY=0.5;exitDx=0;exitDy=0;" edge="1" parent="1" source="72XRdSwTwGZmG9cL9qSm-18" target="72XRdSwTwGZmG9cL9qSm-26">
          <mxGeometry relative="1" as="geometry" />
        </mxCell>
        <mxCell id="72XRdSwTwGZmG9cL9qSm-18" value="new mid" style="rhombus;whiteSpace=wrap;html=1;" vertex="1" parent="1">
          <mxGeometry x="550" y="300" width="80" height="80" as="geometry" />
        </mxCell>
        <mxCell id="72XRdSwTwGZmG9cL9qSm-21" value="false" style="text;html=1;align=center;verticalAlign=middle;whiteSpace=wrap;rounded=0;" vertex="1" parent="1">
          <mxGeometry x="590" y="190" width="60" height="30" as="geometry" />
        </mxCell>
        <mxCell id="72XRdSwTwGZmG9cL9qSm-22" value="true" style="text;html=1;align=center;verticalAlign=middle;whiteSpace=wrap;rounded=0;" vertex="1" parent="1">
          <mxGeometry x="730" y="190" width="60" height="30" as="geometry" />
        </mxCell>
        <mxCell id="72XRdSwTwGZmG9cL9qSm-31" style="edgeStyle=orthogonalEdgeStyle;rounded=0;orthogonalLoop=1;jettySize=auto;html=1;exitX=0.5;exitY=1;exitDx=0;exitDy=0;entryX=0.25;entryY=0;entryDx=0;entryDy=0;" edge="1" parent="1" source="72XRdSwTwGZmG9cL9qSm-23" target="72XRdSwTwGZmG9cL9qSm-30">
          <mxGeometry relative="1" as="geometry" />
        </mxCell>
        <mxCell id="72XRdSwTwGZmG9cL9qSm-23" value="get audio id from &lt;br&gt;mid-&amp;gt;audio table" style="rounded=0;whiteSpace=wrap;html=1;fillColor=#f8cecc;strokeColor=#b85450;" vertex="1" parent="1">
          <mxGeometry x="600" y="420" width="100" height="40" as="geometry" />
        </mxCell>
        <mxCell id="72XRdSwTwGZmG9cL9qSm-26" value="operate old &lt;br&gt;media tab" style="rounded=0;whiteSpace=wrap;html=1;" vertex="1" parent="1">
          <mxGeometry x="480" y="568" width="100" height="40" as="geometry" />
        </mxCell>
        <mxCell id="72XRdSwTwGZmG9cL9qSm-28" value="false" style="text;html=1;align=center;verticalAlign=middle;whiteSpace=wrap;rounded=0;" vertex="1" parent="1">
          <mxGeometry x="500" y="310" width="60" height="30" as="geometry" />
        </mxCell>
        <mxCell id="72XRdSwTwGZmG9cL9qSm-29" value="true" style="text;html=1;align=center;verticalAlign=middle;whiteSpace=wrap;rounded=0;" vertex="1" parent="1">
          <mxGeometry x="620" y="310" width="60" height="30" as="geometry" />
        </mxCell>
        <mxCell id="72XRdSwTwGZmG9cL9qSm-30" value="operate media v2 tab by audio_id" style="rounded=0;whiteSpace=wrap;html=1;" vertex="1" parent="1">
          <mxGeometry x="635" y="500" width="110" height="40" as="geometry" />
        </mxCell>
        <mxCell id="72XRdSwTwGZmG9cL9qSm-34" value="true" style="text;html=1;align=center;verticalAlign=middle;whiteSpace=wrap;rounded=0;" vertex="1" parent="1">
          <mxGeometry x="765" y="374" width="60" height="30" as="geometry" />
        </mxCell>
        <mxCell id="72XRdSwTwGZmG9cL9qSm-38" style="edgeStyle=orthogonalEdgeStyle;rounded=0;orthogonalLoop=1;jettySize=auto;html=1;exitX=0.5;exitY=1;exitDx=0;exitDy=0;entryX=1;entryY=0.5;entryDx=0;entryDy=0;" edge="1" parent="1" source="72XRdSwTwGZmG9cL9qSm-35" target="72XRdSwTwGZmG9cL9qSm-26">
          <mxGeometry relative="1" as="geometry" />
        </mxCell>
        <mxCell id="72XRdSwTwGZmG9cL9qSm-35" value="get mid from&lt;br&gt;&amp;nbsp;audio-&amp;gt;mid tab" style="rounded=0;whiteSpace=wrap;html=1;fillColor=#f8cecc;strokeColor=#b85450;" vertex="1" parent="1">
          <mxGeometry x="825" y="520" width="110" height="40" as="geometry" />
        </mxCell>
        <mxCell id="72XRdSwTwGZmG9cL9qSm-42" style="edgeStyle=orthogonalEdgeStyle;rounded=0;orthogonalLoop=1;jettySize=auto;html=1;exitX=0.5;exitY=0.5;exitDx=0;exitDy=15;exitPerimeter=0;entryX=0.5;entryY=0;entryDx=0;entryDy=0;" edge="1" parent="1" source="72XRdSwTwGZmG9cL9qSm-41" target="72XRdSwTwGZmG9cL9qSm-16">
          <mxGeometry relative="1" as="geometry" />
        </mxCell>
        <mxCell id="72XRdSwTwGZmG9cL9qSm-41" value="start" style="html=1;dashed=0;whiteSpace=wrap;shape=mxgraph.dfd.start" vertex="1" parent="1">
          <mxGeometry x="650" y="120" width="80" height="30" as="geometry" />
        </mxCell>
        <mxCell id="72XRdSwTwGZmG9cL9qSm-43" value="end" style="html=1;dashed=0;whiteSpace=wrap;shape=mxgraph.dfd.start" vertex="1" parent="1">
          <mxGeometry x="650" y="670" width="80" height="30" as="geometry" />
        </mxCell>
        <mxCell id="72XRdSwTwGZmG9cL9qSm-44" style="edgeStyle=orthogonalEdgeStyle;rounded=0;orthogonalLoop=1;jettySize=auto;html=1;entryX=0.5;entryY=0.5;entryDx=0;entryDy=-15;entryPerimeter=0;jumpStyle=arc;" edge="1" parent="1" source="72XRdSwTwGZmG9cL9qSm-30" target="72XRdSwTwGZmG9cL9qSm-43">
          <mxGeometry relative="1" as="geometry" />
        </mxCell>
        <mxCell id="72XRdSwTwGZmG9cL9qSm-45" style="edgeStyle=orthogonalEdgeStyle;rounded=0;orthogonalLoop=1;jettySize=auto;html=1;exitX=0.5;exitY=1;exitDx=0;exitDy=0;entryX=0.5;entryY=0.5;entryDx=0;entryDy=-15;entryPerimeter=0;" edge="1" parent="1" source="72XRdSwTwGZmG9cL9qSm-26" target="72XRdSwTwGZmG9cL9qSm-43">
          <mxGeometry relative="1" as="geometry" />
        </mxCell>
      </root>
    </mxGraphModel>
  </diagram>
</mxfile>
